<svg width="30" height="30" viewBox="0 0 30 30" xmlns="http://www.w3.org/2000/svg">
<path d="M15.2484 14.7691L12.2566 10.9465C12.2214 10.9008 12.1664 10.875 12.1089 10.875H11.2031C11.1246 10.875 11.0812 10.9652 11.1292 11.0262L14.2394 15L11.1292 18.9738C11.1184 18.9876 11.1117 19.0042 11.1099 19.0217C11.108 19.0391 11.1111 19.0568 11.1188 19.0725C11.1265 19.0883 11.1385 19.1016 11.1534 19.1109C11.1683 19.1201 11.1855 19.125 11.2031 19.125H12.1089C12.1664 19.125 12.2214 19.098 12.2566 19.0535L15.2484 15.232C15.355 15.0949 15.355 14.9051 15.2484 14.7691ZM18.8109 14.7691L15.8191 10.9465C15.7839 10.9008 15.7289 10.875 15.6714 10.875H14.7656C14.6871 10.875 14.6437 10.9652 14.6917 11.0262L17.8019 15L14.6917 18.9738C14.6809 18.9876 14.6742 19.0042 14.6724 19.0217C14.6705 19.0391 14.6736 19.0568 14.6813 19.0725C14.689 19.0883 14.701 19.1016 14.7159 19.1109C14.7308 19.1201 14.748 19.125 14.7656 19.125H15.6714C15.7289 19.125 15.7839 19.098 15.8191 19.0535L18.8109 15.232C18.9175 15.0949 18.9175 14.9051 18.8109 14.7691Z" />
</svg>
