<svg width="20" height="20" viewBox="0 0 20 20"  xmlns="http://www.w3.org/2000/svg">
<path fill-rule="evenodd" clip-rule="evenodd" d="M16 9.8C16 9.91046 15.9105 10 15.8 10H8.2C8.08954 10 8 9.91046 8 9.8V9.2C8 9.08954 8.08954 9 8.2 9H15.8C15.9105 9 16 9.08954 16 9.2V9.8Z" />
<path fill-rule="evenodd" clip-rule="evenodd" d="M12.677 6C12.5077 6 12.415 6.19709 12.5229 6.32748L15.2256 9.59456L12.6793 12.6725C12.5714 12.8029 12.6642 13 12.8334 13H13.471C13.62 13 13.7612 12.9335 13.8562 12.8187L15.77 10.5053C15.9184 10.326 15.9995 10.1006 15.9995 9.86789V9.32123C15.9995 9.08852 15.9184 8.86311 15.77 8.6838L13.6998 6.18129C13.6048 6.06647 13.4635 6 13.3145 6H12.677Z" />
</svg>
