<svg width="14" height="14" viewBox="0 0 14 14" xmlns="http://www.w3.org/2000/svg">
<path d="M9.97305 6.70478L4.69024 2.57861C4.67643 2.56774 4.65984 2.56099 4.64237 2.55912C4.6249 2.55726 4.60726 2.56036 4.59147 2.56807C4.57569 2.57578 4.5624 2.58778 4.55312 2.60271C4.54385 2.61763 4.53898 2.63487 4.53906 2.65244V3.55829C4.53906 3.61572 4.56602 3.67079 4.61055 3.70595L8.8293 7.00009L4.61055 10.2942C4.56484 10.3294 4.53906 10.3845 4.53906 10.4419V11.3477C4.53906 11.4263 4.6293 11.4696 4.69024 11.4216L9.97305 7.2954C10.0179 7.26038 10.0543 7.21558 10.0793 7.16441C10.1042 7.11323 10.1172 7.05704 10.1172 7.00009C10.1172 6.94315 10.1042 6.88695 10.0793 6.83578C10.0543 6.78461 10.0179 6.7398 9.97305 6.70478Z" />
</svg>
