<svg width="24" height="24" viewBox="0 0 24 24" xmlns="http://www.w3.org/2000/svg">
<path fill-rule="evenodd" clip-rule="evenodd" d="M21.4794 9C21.7621 9 22 8.78271 22 8.5C22 5.415 19.585 3 16.5 3C14.76 3 13.09 3.81 12 5.085C10.91 3.81 9.24 3 7.5 3C4.415 3 2 5.415 2 8.5C2 12.2381 5.33377 15.2995 10.3993 19.8982C10.6301 20.1077 11 19.9438 11 19.6321V18.2118C11 17.9271 10.8781 17.6565 10.6701 17.4621C10.5608 17.3599 10.4524 17.257 10.3439 17.1539L10.3438 17.1539C10.2532 17.0679 10.1626 16.9819 10.0714 16.8962C6.63593 13.6695 4 11.1937 4 8.499C4 6.146 6.131 4.54 8.396 5.117C9.75394 5.4627 10.341 6.17711 11.1278 7.13462C11.291 7.33317 11.4627 7.54217 11.6517 7.7605C11.838 7.97577 12.1655 7.97966 12.3471 7.76043C12.4462 7.64087 12.5477 7.51339 12.6528 7.38147L12.6529 7.38136C13.3292 6.53223 14.1551 5.49521 15.457 5.147C17.91 4.49 20 6.17 20 8.5C20 8.76662 20.2046 9 20.4712 9H21.4794ZM18.5 11C18.2239 11 18 11.2239 18 11.5V12.5C18 12.7761 18.2239 13 18.5 13H21.5C21.7761 13 22 12.7761 22 12.5V11.5C22 11.2239 21.7761 11 21.5 11H18.5ZM16.5 15C16.2239 15 16 15.2239 16 15.5V16.5C16 16.7761 16.2239 17 16.5 17H21.5C21.7761 17 22 16.7761 22 16.5V15.5C22 15.2239 21.7761 15 21.5 15H16.5ZM13 19.5C13 19.2239 13.2239 19 13.5 19H21.5C21.7761 19 22 19.2239 22 19.5V20.5C22 20.7761 21.7761 21 21.5 21H13.5C13.2239 21 13 20.7761 13 20.5V19.5Z" />
</svg>
