<svg width="24" height="24" viewBox="0 0 24 24" xmlns="http://www.w3.org/2000/svg">
<g opacity="0.3" clip-path="url(#clip0_106_2)">
<path d="M16.7365 13.7679C19.0787 15.6712 20.0522 17.6764 20.3732 20.6481C20.3341 21.2757 20.3341 21.2757 19.6674 21.9424C18.9591 21.8174 18.9591 21.8174 18.3341 21.609C18.2851 21.3714 18.2361 21.1338 18.1857 20.889C17.6759 18.7124 17.1195 17.0341 15.3341 15.609C13.6511 14.5667 12.0424 14.4753 10.1102 14.7509C8.23492 15.2135 7.06241 16.3878 6.00078 17.9424C5.39324 19.2249 5.04254 20.5759 4.66745 21.9424C3.37578 21.6507 3.37578 21.6507 3.00078 21.2757C2.97418 18.8442 3.62771 16.7828 5.24297 14.9593C8.47104 11.892 12.955 11.238 16.7365 13.7679Z" />
<path d="M14.0008 3.60919C15.4024 4.77228 15.9298 5.53733 16.1049 7.35919C15.9806 8.8507 15.6558 9.81465 14.6674 10.9425C13.4053 11.7045 12.6196 11.9475 11.1466 11.9217C9.68426 11.5229 8.43769 10.9872 7.61925 9.65477C7.12573 8.42208 7.15754 7.24635 7.3341 5.94253C7.94243 4.57377 8.57387 3.88417 9.91743 3.27586C11.4035 2.81093 12.5992 2.94135 14.0008 3.60919ZM9.66743 5.94253C9.2219 7.06117 9.2219 7.06117 9.3341 8.27586C9.96626 9.32472 9.96626 9.32472 11.0008 9.94253C12.1823 9.96616 12.7408 9.82722 13.6466 9.06753C14.1716 7.89394 14.0221 7.16175 13.6674 5.94253C12.1108 4.70517 11.2241 4.70517 9.66743 5.94253Z" />
</g>
<defs>
<clipPath id="clip0_106_2">
<rect width="24" height="24" fill="white"/>
</clipPath>
</defs>
</svg>
