<svg xmlns="http://www.w3.org/2000/svg" width="16" height="16" viewBox="0 0 16 16" fill="none" style="margin-right: 6px" data-mutation="0">
  <path d="M8.66671 7.33334V1.66668C8.66671 1.48258 8.51747 1.33334 8.33337 1.33334L7.66671 1.33334C7.48261 1.33334 7.33337 1.48258 7.33337 1.66668V7.33334H1.66671C1.48261 7.33334 1.33337 7.48258 1.33337 7.66668V8.33334C1.33337 8.51744 1.48261 8.66668 1.66671 8.66668H7.33337V14.3333C7.33337 14.5174 7.48261 14.6667 7.66671 14.6667H8.33337C8.51747 14.6667 8.66671 14.5174 8.66671 14.3333V8.66668H14.3334C14.5175 8.66668 14.6667 8.51744 14.6667 8.33334V7.66668C14.6667 7.48258 14.5175 7.33334 14.3334 7.33334H8.66671Z" fill="#7F7F8E" data-mutation="0"></path>
</svg>

