<svg width="24" height="24" viewBox="0 0 24 24" xmlns="http://www.w3.org/2000/svg">
<path d="M17 10.5C17 6.91015 14.0899 4 10.5 4C6.91015 4 4 6.91015 4 10.5C4 14.0899 6.91015 17 10.5 17C14.0899 17 17 14.0899 17 10.5ZM15.7618 17.176C14.3145 18.3183 12.4869 19 10.5 19C5.80558 19 2 15.1944 2 10.5C2 5.80558 5.80558 2 10.5 2C15.1944 2 19 5.80558 19 10.5C19 12.4869 18.3183 14.3145 17.176 15.7618L21.3536 19.9394C21.5489 20.1347 21.5489 20.4513 21.3536 20.6465L20.6465 21.3536C20.4512 21.5489 20.1346 21.5489 19.9394 21.3536L15.7618 17.176Z" />
</svg>
