<svg width="48" height="48" viewBox="0 0 48 48" fill="none" xmlns="http://www.w3.org/2000/svg">
<path fill-rule="evenodd" clip-rule="evenodd" d="M8.27574 6.75002C8.27574 5.92159 8.94731 5.25002 9.77574 5.25002H42.3289C43.1573 5.25002 43.8289 5.92159 43.8289 6.75002V41.4034C43.8289 42.2318 43.1573 42.9034 42.3289 42.9034H9.77574C8.94731 42.9034 8.27574 42.2318 8.27574 41.4034V28.823L4.70842 33.1351C4.46949 33.4239 4.00021 33.255 4.00021 32.8801V30.0048C4.00021 29.5394 4.16253 29.0885 4.45919 28.7299L7.49163 25.0643C7.87158 24.6051 8.43658 24.3392 9.03265 24.3392H10.2757C10.828 24.3392 11.2757 24.7869 11.2757 25.3392V39.9034H40.8289V8.25002H11.2757V16.7761C11.2757 17.3283 10.828 17.7761 10.2757 17.7761H9.27574C8.72345 17.7761 8.27574 17.3283 8.27574 16.7761V6.75002Z" fill="black"/>
<path d="M31.7751 27.8841C31.7751 31.4884 29.1353 33.2651 26.0387 33.2651C23.0944 33.2651 20.3277 31.7168 20.2769 27.9348H23.5766C23.6274 29.5593 24.7442 30.2954 26.0387 30.2954C27.4601 30.2954 28.4754 29.407 28.4754 27.7825C28.4754 26.285 27.5616 25.2951 25.9372 25.2951H25.4549V22.4269H25.9372C27.5363 22.4269 28.2216 21.437 28.2216 20.1679C28.2216 18.6449 27.2063 17.8581 26.0133 17.8581C24.7696 17.8581 23.8558 18.6703 23.7797 20.0409H20.48C20.5561 16.8174 22.9674 14.8883 26.0133 14.8883C29.2115 14.8883 31.5213 17.0204 31.5213 20.0663C31.5213 22.0208 30.6329 23.1376 29.4399 23.7721C30.7344 24.4575 31.7751 25.7012 31.7751 27.8841Z" fill="#14151A"/>
</svg>
