<svg width="28" height="29" viewBox="0 0 28 29" fill="none" xmlns="http://www.w3.org/2000/svg">
<circle cx="14.0002" cy="14.9535" r="11.6083" stroke="#B3B3B3" stroke-width="0.116667"/>
<circle cx="14.0002" cy="14.9535" r="10.7917" stroke="black" stroke-width="1.75"/>
<path fill-rule="evenodd" clip-rule="evenodd" d="M12.3956 26.5107C12.5024 26.4284 12.608 26.3446 12.7124 26.2595C9.89714 23.3249 8.16699 19.3413 8.16699 14.9535C8.16699 10.5658 9.89714 6.58215 12.7124 3.64761C12.608 3.56242 12.5024 3.47865 12.3956 3.39633C12.9202 3.32416 13.4559 3.28687 14.0003 3.28687C14.5448 3.28687 15.0805 3.32416 15.6051 3.39633C15.4983 3.47865 15.3926 3.56242 15.2882 3.64761C18.1035 6.58215 19.8337 10.5658 19.8337 14.9535C19.8337 19.3413 18.1035 23.3249 15.2882 26.2595C15.3926 26.3446 15.4983 26.4284 15.6051 26.5107C15.0805 26.5829 14.5448 26.6202 14.0003 26.6202C13.4559 26.6202 12.9202 26.5829 12.3956 26.5107ZM14.0003 4.83306C16.5287 7.45562 18.0837 11.023 18.0837 14.9535C18.0837 18.8841 16.5287 22.4514 14.0003 25.074C11.472 22.4514 9.91699 18.8841 9.91699 14.9535C9.91699 11.023 11.472 7.45562 14.0003 4.83306Z" fill="black"/>
<line x1="3.5" y1="15.2452" x2="24.5" y2="15.2452" stroke="black" stroke-width="1.75"/>
</svg>
