<svg width="49" height="48" viewBox="0 0 49 48" fill="none" xmlns="http://www.w3.org/2000/svg">
<path fill-rule="evenodd" clip-rule="evenodd" d="M13.2224 33.1738H4.49994V30.3552L9.41344 25.0227C9.9086 24.4895 10.099 24.1467 10.099 23.5753C10.099 22.8326 9.68006 22.3184 8.88019 22.3184C8.30885 22.3184 7.62325 22.585 7.62325 23.6325H4.49994C4.49994 20.9662 6.51866 19.4998 8.88019 19.4998C11.3941 19.4998 13.2224 21.0424 13.2224 23.5944C13.2224 25.0227 12.632 25.7845 11.5464 26.9272L8.30885 30.3552H13.2224V33.1738Z" fill="black"/>
<path fill-rule="evenodd" clip-rule="evenodd" d="M24.1666 31.3836H23.1572V33.1738H20.1863V31.3836H14.5681V28.4127L19.0626 19.6141H22.4907L17.9961 28.4127H20.1863V26.6225H23.1572V28.4127H24.1666V31.3836Z" fill="black"/>
<path fill-rule="evenodd" clip-rule="evenodd" d="M44.3805 22.4328L40.1526 33.1739H36.7245L40.9524 22.4328H38.0577V24.5658H35.0867V19.6142H44.3805V22.4328Z" fill="black"/>
<path fill-rule="evenodd" clip-rule="evenodd" d="M25.6484 33.1736L30.1188 19.684H33.0136L28.5432 33.1736H25.6484Z" fill="black"/>
<path fill-rule="evenodd" clip-rule="evenodd" d="M9.77445 16.5C10.2203 16.5 10.6087 16.2033 10.7555 15.7824C12.6818 10.2611 18.0804 6.25002 24.5 6.25002C30.9196 6.25002 36.3183 10.2611 38.2445 15.7824C38.3913 16.2033 38.7798 16.5 39.2256 16.5H40.316C40.9593 16.5 41.4361 15.9001 41.2436 15.2862C39.0529 8.2971 32.3566 3.25002 24.5 3.25002C16.6435 3.25002 9.94718 8.29709 7.75641 15.2862C7.56399 15.9001 8.04073 16.5 8.68406 16.5H9.77445ZM38.8738 36C38.2777 36 37.7127 36.2659 37.3327 36.7252L33.5895 41.25H29.5C29.5 40.6978 29.0523 40.25 28.5 40.25H20.5C19.9478 40.25 19.5 40.6978 19.5 41.25V44.25C19.5 44.8023 19.9478 45.25 20.5 45.25H28.5C29.0523 45.25 29.5 44.8023 29.5 44.25H34.06C34.6561 44.25 35.2211 43.9842 35.601 43.5249L41.6556 36.2062C41.7235 36.1241 41.6651 36 41.5586 36H38.8738Z" fill="black"/>
</svg>
