<svg width="28" height="29" viewBox="0 0 28 29" fill="none" xmlns="http://www.w3.org/2000/svg">
<path fill-rule="evenodd" clip-rule="evenodd" d="M13.728 3.619C13.9069 3.57608 14.0934 3.57608 14.2723 3.619L23.4598 5.82299C23.9844 5.94884 24.3543 6.41797 24.3543 6.95747V19.7727C24.3543 20.1736 24.1485 20.5464 23.8093 20.76L14.6218 26.5455C14.2419 26.7847 13.7584 26.7847 13.3785 26.5455L4.19099 20.76C3.85179 20.5464 3.646 20.1736 3.646 19.7727V6.95747C3.646 6.41797 4.0159 5.94884 4.54051 5.82299L13.728 3.619ZM5.396 7.41742V19.4507L14.0002 24.8689L22.6043 19.4507V7.41742L14.0002 5.35336L5.396 7.41742Z" fill="black"/>
<circle cx="13.5625" cy="13.3494" r="3.5" stroke="black" stroke-width="1.75"/>
<path fill-rule="evenodd" clip-rule="evenodd" d="M16.6473 18.9712C16.8689 19.2391 17.1985 19.3942 17.5462 19.3942H18.7726C18.97 19.3942 19.0782 19.1642 18.9524 19.0121L16.0774 15.5369L14.729 16.6524L16.6473 18.9712Z" fill="black"/>
</svg>
