<svg width="0" height="0" class="hidden">
  <symbol xmlns="http://www.w3.org/2000/svg" viewBox="0 0 24 24" id="person">
    <g>
      <path d="M16.7365 13.7679C19.0787 15.6712 20.0522 17.6764 20.3732 20.6481C20.3341 21.2757 20.3341 21.2757 19.6674 21.9424C18.9591 21.8174 18.9591 21.8174 18.3341 21.609C18.2851 21.3714 18.2361 21.1338 18.1857 20.889C17.6759 18.7124 17.1195 17.0341 15.3341 15.609C13.6511 14.5667 12.0424 14.4753 10.1102 14.7509C8.23492 15.2135 7.06241 16.3878 6.00078 17.9424C5.39324 19.2249 5.04254 20.5759 4.66745 21.9424C3.37578 21.6507 3.37578 21.6507 3.00078 21.2757C2.97418 18.8442 3.62771 16.7828 5.24297 14.9593C8.47104 11.892 12.955 11.238 16.7365 13.7679Z"></path>
      <path d="M14.0008 3.60919C15.4024 4.77228 15.9298 5.53733 16.1049 7.35919C15.9806 8.8507 15.6558 9.81465 14.6674 10.9425C13.4053 11.7045 12.6196 11.9475 11.1466 11.9217C9.68426 11.5229 8.43769 10.9872 7.61925 9.65477C7.12573 8.42208 7.15754 7.24635 7.3341 5.94253C7.94243 4.57377 8.57387 3.88417 9.91743 3.27586C11.4035 2.81093 12.5992 2.94135 14.0008 3.60919ZM9.66743 5.94253C9.2219 7.06117 9.2219 7.06117 9.3341 8.27586C9.96626 9.32472 9.96626 9.32472 11.0008 9.94253C12.1823 9.96616 12.7408 9.82722 13.6466 9.06753C14.1716 7.89394 14.0221 7.16175 13.6674 5.94253C12.1108 4.70517 11.2241 4.70517 9.66743 5.94253Z"></path>
    </g>
    <defs>
      <clipPath id="clip0_106_2">
        <rect width="24" height="24" ></rect>
      </clipPath>
    </defs>
  </symbol>
  <symbol xmlns="http://www.w3.org/2000/svg" viewBox="0 0 24 24" id="basket">
    <path fill-rule="evenodd" clip-rule="evenodd" d="M21.4794 9C21.7621 9 22 8.78271 22 8.5C22 5.415 19.585 3 16.5 3C14.76 3 13.09 3.81 12 5.085C10.91 3.81 9.24 3 7.5 3C4.415 3 2 5.415 2 8.5C2 12.2381 5.33377 15.2995 10.3993 19.8982C10.6301 20.1077 11 19.9438 11 19.6321V18.2118C11 17.9271 10.8781 17.6565 10.6701 17.4621C10.5608 17.3599 10.4524 17.257 10.3439 17.1539L10.3438 17.1539C10.2532 17.0679 10.1626 16.9819 10.0714 16.8962C6.63593 13.6695 4 11.1937 4 8.499C4 6.146 6.131 4.54 8.396 5.117C9.75394 5.4627 10.341 6.17711 11.1278 7.13462C11.291 7.33317 11.4627 7.54217 11.6517 7.7605C11.838 7.97577 12.1655 7.97966 12.3471 7.76043C12.4462 7.64087 12.5477 7.51339 12.6528 7.38147L12.6529 7.38136C13.3292 6.53223 14.1551 5.49521 15.457 5.147C17.91 4.49 20 6.17 20 8.5C20 8.76662 20.2046 9 20.4712 9H21.4794ZM18.5 11C18.2239 11 18 11.2239 18 11.5V12.5C18 12.7761 18.2239 13 18.5 13H21.5C21.7761 13 22 12.7761 22 12.5V11.5C22 11.2239 21.7761 11 21.5 11H18.5ZM16.5 15C16.2239 15 16 15.2239 16 15.5V16.5C16 16.7761 16.2239 17 16.5 17H21.5C21.7761 17 22 16.7761 22 16.5V15.5C22 15.2239 21.7761 15 21.5 15H16.5ZM13 19.5C13 19.2239 13.2239 19 13.5 19H21.5C21.7761 19 22 19.2239 22 19.5V20.5C22 20.7761 21.7761 21 21.5 21H13.5C13.2239 21 13 20.7761 13 20.5V19.5Z"></path>
  </symbol>
  <symbol xmlns="http://www.w3.org/2000/svg" viewBox="0 0 24 24" id="search">
    <path d="M17 10.5C17 6.91015 14.0899 4 10.5 4C6.91015 4 4 6.91015 4 10.5C4 14.0899 6.91015 17 10.5 17C14.0899 17 17 14.0899 17 10.5ZM15.7618 17.176C14.3145 18.3183 12.4869 19 10.5 19C5.80558 19 2 15.1944 2 10.5C2 5.80558 5.80558 2 10.5 2C15.1944 2 19 5.80558 19 10.5C19 12.4869 18.3183 14.3145 17.176 15.7618L21.3536 19.9394C21.5489 20.1347 21.5489 20.4513 21.3536 20.6465L20.6465 21.3536C20.4512 21.5489 20.1346 21.5489 19.9394 21.3536L15.7618 17.176Z"></path>
  </symbol>
  <symbol xmlns="http://www.w3.org/2000/svg" viewBox="0 0 20 20" id="arrow-type-1">
    <path fill-rule="evenodd" clip-rule="evenodd" d="M16 9.8C16 9.91046 15.9105 10 15.8 10H8.2C8.08954 10 8 9.91046 8 9.8V9.2C8 9.08954 8.08954 9 8.2 9H15.8C15.9105 9 16 9.08954 16 9.2V9.8Z"></path>
    <path fill-rule="evenodd" clip-rule="evenodd" d="M12.677 6C12.5077 6 12.415 6.19709 12.5229 6.32748L15.2256 9.59456L12.6793 12.6725C12.5714 12.8029 12.6642 13 12.8334 13H13.471C13.62 13 13.7612 12.9335 13.8562 12.8187L15.77 10.5053C15.9184 10.326 15.9995 10.1006 15.9995 9.86789V9.32123C15.9995 9.08852 15.9184 8.86311 15.77 8.6838L13.6998 6.18129C13.6048 6.06647 13.4635 6 13.3145 6H12.677Z"></path>
  </symbol>
  <symbol xmlns="http://www.w3.org/2000/svg" viewBox="0 0 30 30" id="arrow-type-2">
    <path d="M15.2484 14.7691L12.2566 10.9465C12.2214 10.9008 12.1664 10.875 12.1089 10.875H11.2031C11.1246 10.875 11.0812 10.9652 11.1292 11.0262L14.2394 15L11.1292 18.9738C11.1184 18.9876 11.1117 19.0042 11.1099 19.0217C11.108 19.0391 11.1111 19.0568 11.1188 19.0725C11.1265 19.0883 11.1385 19.1016 11.1534 19.1109C11.1683 19.1201 11.1855 19.125 11.2031 19.125H12.1089C12.1664 19.125 12.2214 19.098 12.2566 19.0535L15.2484 15.232C15.355 15.0949 15.355 14.9051 15.2484 14.7691ZM18.8109 14.7691L15.8191 10.9465C15.7839 10.9008 15.7289 10.875 15.6714 10.875H14.7656C14.6871 10.875 14.6437 10.9652 14.6917 11.0262L17.8019 15L14.6917 18.9738C14.6809 18.9876 14.6742 19.0042 14.6724 19.0217C14.6705 19.0391 14.6736 19.0568 14.6813 19.0725C14.689 19.0883 14.701 19.1016 14.7159 19.1109C14.7308 19.1201 14.748 19.125 14.7656 19.125H15.6714C15.7289 19.125 15.7839 19.098 15.8191 19.0535L18.8109 15.232C18.9175 15.0949 18.9175 14.9051 18.8109 14.7691Z"></path>
  </symbol>
  <symbol xmlns="http://www.w3.org/2000/svg" viewBox="0 0 14 14" id="arrow-type-3">
    <path d="M9.97305 6.70478L4.69024 2.57861C4.67643 2.56774 4.65984 2.56099 4.64237 2.55912C4.6249 2.55726 4.60726 2.56036 4.59147 2.56807C4.57569 2.57578 4.5624 2.58778 4.55312 2.60271C4.54385 2.61763 4.53898 2.63487 4.53906 2.65244V3.55829C4.53906 3.61572 4.56602 3.67079 4.61055 3.70595L8.8293 7.00009L4.61055 10.2942C4.56484 10.3294 4.53906 10.3845 4.53906 10.4419V11.3477C4.53906 11.4263 4.6293 11.4696 4.69024 11.4216L9.97305 7.2954C10.0179 7.26038 10.0543 7.21558 10.0793 7.16441C10.1042 7.11323 10.1172 7.05704 10.1172 7.00009C10.1172 6.94315 10.1042 6.88695 10.0793 6.83578C10.0543 6.78461 10.0179 6.7398 9.97305 6.70478Z"></path>
  </symbol>
  <symbol xmlns="http://www.w3.org/2000/svg" viewBox="0 0 12 12" id="arrow-dark">
    <path fill-rule="evenodd" clip-rule="evenodd" d="M0.966106 8.91781C0.845235 9.0274 0.649215 9.0274 0.528306 8.91781L0.0906547 8.5211C-0.0302259 8.41151 -0.0302167 8.2339 0.0906732 8.12431L5.56309 3.16433C5.80486 2.9452 6.19682 2.94523 6.43855 3.16439L11.9094 8.12431C12.0302 8.2339 12.0302 8.41151 11.9094 8.5211L11.4718 8.91781C11.3508 9.0274 11.1548 9.0274 11.0339 8.91772L6.00085 4.35118L0.966106 8.91781Z"></path>
  </symbol>
</svg>